<?xml version="1.0" encoding="UTF-8" standalone="no"?>
<!-- Created with Inkscape (http://www.inkscape.org/) -->

<svg
   version="1.1"
   id="svg3740"
   width="2336"
   height="2336"
   viewBox="0 0 2336 2336"
   sodipodi:docname="logo.svg"
   inkscape:version="1.2 (dc2aeda, 2022-05-15)"
   inkscape:export-filename="../../../Dev/code/birth-list/public/logo.png"
   inkscape:export-xdpi="10.520548"
   inkscape:export-ydpi="10.520548"
   xmlns:inkscape="http://www.inkscape.org/namespaces/inkscape"
   xmlns:sodipodi="http://sodipodi.sourceforge.net/DTD/sodipodi-0.dtd"
   xmlns="http://www.w3.org/2000/svg"
   xmlns:svg="http://www.w3.org/2000/svg"
   xmlns:rdf="http://www.w3.org/1999/02/22-rdf-syntax-ns#"
   xmlns:cc="http://creativecommons.org/ns#"
   xmlns:dc="http://purl.org/dc/elements/1.1/">
  <metadata
     id="metadata3746">
    <rdf:RDF>
      <cc:Work
         rdf:about="">
        <dc:format>image/svg+xml</dc:format>
        <dc:type
           rdf:resource="http://purl.org/dc/dcmitype/StillImage" />
      </cc:Work>
    </rdf:RDF>
  </metadata>
  <defs
     id="defs3744" />
  <sodipodi:namedview
     pagecolor="#ffffff"
     bordercolor="#666666"
     borderopacity="1"
     objecttolerance="10"
     gridtolerance="10"
     guidetolerance="10"
     inkscape:pageopacity="0"
     inkscape:pageshadow="2"
     inkscape:window-width="1440"
     inkscape:window-height="847"
     id="namedview3742"
     showgrid="false"
     inkscape:zoom="0.20205479"
     inkscape:cx="806.71188"
     inkscape:cy="1096.2373"
     inkscape:window-x="0"
     inkscape:window-y="25"
     inkscape:window-maximized="1"
     inkscape:current-layer="svg3740"
     inkscape:showpageshadow="2"
     inkscape:pagecheckerboard="0"
     inkscape:deskcolor="#d1d1d1" />
  <g
     id="g3750">
    <path
       style="fill:#fcfcfc;stroke-width:1.33333337"
       d="M 0,1168 V 0 H 1168 2336 V 1168 2336 H 1168 0 Z m 1088.2267,1124.6924 c 24.4078,-2.8551 37.2472,-8.7816 51.3353,-23.6959 14.9444,-15.8205 30.6378,-49.7185 39.6587,-85.6632 5.4011,-21.521 9.4253,-47.7021 18.752,-122 13.2502,-105.5521 34.8263,-270.0756 39.9551,-304.6666 2.5007,-16.8667 6.1169,-42.6667 8.036,-57.3334 4.3233,-33.042 4.2424,-32.6677 7.0616,-32.6618 1.2694,0 7.1079,1.816 12.9746,4.0296 13.3964,5.0548 61.0987,17.4352 84,21.801 34.8673,6.6471 88.6832,14.1639 115.3333,16.1095 39.7,2.8983 117.641,5.2357 139.1246,4.1724 11.0953,-0.5492 30.9462,-2.9887 49.5085,-6.084 69.8559,-11.6485 117.312,-27.5488 177.3669,-59.4265 7.3334,-3.8927 20.8334,-10.4951 30,-14.672 23.4955,-10.706 39.486,-20.1804 80.6667,-47.7946 l 36,-24.1402 29.8265,-29.3334 c 28.4616,-27.9909 43.4486,-44.7545 58.4096,-65.3333 15.4658,-21.2733 37.0843,-56.8285 44.0266,-72.4088 8.6461,-19.4047 17.6536,-49.4311 22.4548,-74.8526 l 4.8968,-25.928 -0.6099,-29.4053 c -0.5479,-26.4159 -1.0411,-31.5019 -4.8515,-50.0289 -5.4514,-26.5067 -13.0904,-49.3458 -23.3364,-69.7713 -24.6229,-49.0861 -61.2358,-89.9645 -109.1942,-121.9154 -11.6336,-7.7506 -16.4647,-9.8928 -44.6667,-19.8067 -18.6249,-6.54716 -38.4725,-12.54801 -48.2889,-14.59995 -20,-4.18066 -45.34,-12.22914 -45.3162,-14.39329 0.013,-0.85604 4.6467,-4.55643 10.305,-8.22309 22.0532,-14.29114 59.1886,-43.98026 83.0112,-66.36607 19.1766,-18.02008 64.9516,-65.61691 73.6897,-76.62264 11.6556,-14.68027 17.2087,-23.70207 30.1072,-48.91356 12.5812,-24.59109 17.3732,-37.40672 24.1083,-64.47504 6.5677,-26.39639 7.4322,-33.78484 7.3662,-62.95603 -0.1186,-52.64509 -6.3501,-91.33825 -22.0082,-136.66666 -17.334,-50.17939 -35.4434,-77.71162 -81.1707,-123.4063 -21.3709,-21.35564 -30.5385,-29.50389 -41.5245,-36.90726 -25.4395,-17.14355 -50.6464,-28.43851 -80.568,-36.10168 -20.4024,-5.22522 -27.8832,-6.51922 -51.2342,-8.8623 -16.4728,-1.6529 -21.984,-1.65414 -41.2237,-0.009 -12.2148,1.04432 -26.4088,1.91297 -31.5421,1.93035 -12.9052,0.0437 -31.1902,3.41214 -44.6667,8.22854 -6.2333,2.22774 -18.6941,6.64762 -27.6908,9.82196 -8.9965,3.17435 -19.1965,7.40182 -22.6667,9.39435 -3.47,1.99255 -10.479,5.958 -15.5756,8.81211 -12.1262,6.79086 -13.8369,8.14568 -38.8586,30.7735 -38.7766,35.06671 -48.4538,47.23139 -88.2154,110.89054 -10.505,16.8189 -24.6938,43.19458 -29.8213,55.43541 -1.6895,4.03333 -5.2644,11.23333 -7.9441,16 -2.6798,4.76667 -11.561,25.52205 -19.7359,46.12308 -12.3693,31.17075 -17.4461,46.38579 -30.2527,90.66667 -8.464,29.26564 -22.2121,75.11025 -30.5514,101.87692 -8.3392,26.76666 -20.9335,70.56666 -27.9872,97.33333 -7.0538,26.76667 -16.3462,60.06667 -20.65,74 -4.3039,13.93333 -8.868,29.12987 -10.1424,33.77007 -3.4059,12.39984 -4.8949,13.07274 -24.1727,10.92404 -25.0011,-2.7866 -77.2587,-0.8371 -108.7331,4.0563 -13.7489,2.1376 -28.4489,5.0359 -32.6667,6.4407 -4.2178,1.4049 -12.7687,3.8646 -19.0021,5.4662 -22.0693,5.6703 -65.1286,29.5746 -82.2948,45.6857 -10.0601,9.4417 -35.2133,38.3072 -42.6712,48.9689 -48.70977,69.6345 -66.42487,171.2038 -42.78487,245.3063 13.43337,42.1087 44.86477,103.7459 70.41387,138.0822 14.4046,19.3589 16.0037,21.94 16.0037,25.8317 0,4.9404 -4.4735,5.8701 -24.5739,5.1071 -34.5216,-1.3104 -58.03303,-8.8098 -116.09277,-37.0298 -50.76468,-24.6741 -76.21824,-43.2061 -127.34194,-92.7141 -13.5714,-13.1424 -28.2714,-26.8619 -32.66667,-30.4876 -19.11532,-15.7688 -26.92219,-25.0412 -25.32367,-30.0777 0.47314,-1.4907 5.29912,-8.6467 10.7244,-15.9022 10.52124,-14.0705 18.70034,-28.3222 35.25242,-61.4259 5.68397,-11.3677 11.61128,-23.0686 13.1718,-26.0019 9.17741,-17.251 26.5996,-71.2479 36.13692,-112 3.08924,-13.2 7.13052,-29.4 8.98065,-36 7.28211,-25.9777 17.43589,-72.3834 21.15115,-96.66668 1.17806,-7.7 3.24873,-21.2 4.60146,-30 1.35275,-8.8 3.67055,-22 5.15067,-29.33333 6.15801,-30.51008 8.16281,-42.66397 8.16281,-49.48604 0,-3.96481 1.15495,-12.4524 2.56654,-18.86131 1.4116,-6.40889 3.54953,-18.55254 4.75094,-26.98588 5.04987,-35.44718 16.8264,-93.70457 23.23936,-114.96278 5.77103,-19.13032 21.95766,-67.08296 37.48111,-111.03722 2.84892,-8.06666 6.14216,-18.26666 7.31832,-22.66666 2.07892,-7.77732 14.56813,-34.96678 37.37909,-81.3756 12.99441,-26.43711 22.09211,-38.39647 48.02401,-63.12995 20.7758,-19.81568 26.6297,-24.20945 57.0557,-42.82416 14.035,-8.58671 30.7887,-18.95561 37.2304,-23.04204 12.3897,-7.85967 22.4532,-12.14264 40.9545,-17.42999 20.2702,-5.79282 34.8446,-7.5602 62.7303,-7.607 27.5632,-0.0463 37.9617,1.62623 50.7851,8.1683 2.8835,1.47104 5.8222,2.31652 6.5304,1.87884 3.9329,-2.43068 -1.3814,-14.14996 -9.6107,-21.19396 -7.302,-6.25023 -18.4872,-9.67402 -39.7174,-12.15744 -49.3497,-5.77275 -93.6004,0.91792 -149.0492,22.53612 -60.6214,23.63484 -99.40067,54.09566 -141.96229,111.51021 -22.46024,30.29828 -60.53039,100.77179 -71.6672,132.66667 -2.81667,8.06666 -9.00306,24.56666 -13.74754,36.66666 -4.74449,12.1 -10.81872,28.79375 -13.49829,37.09722 -5.30733,16.44641 -23.45981,105.45098 -23.45981,115.02732 0,6.60182 -8.65136,50.97109 -24.02394,123.2088 -5.77412,27.13333 -11.7669,56.83333 -13.3173,66 -4.96922,29.3802 -31.53828,131.2033 -39.29251,150.5844 -7.01276,17.5278 -54.45888,112.6462 -62.23545,124.7676 -1.88851,2.9436 -5.03711,8.5163 -6.99692,12.3838 -2.03704,4.0199 -4.99104,7.6823 -6.89662,8.5505 -3.05056,1.39 -3.90302,0.9615 -10.04909,-5.0504 -3.69367,-3.6131 -10.06549,-11.0693 -14.1596,-16.5693 -4.09411,-5.5 -9.9194,-12.1847 -12.94508,-14.8549 -3.02568,-2.6701 -11.48224,-13.4588 -18.79236,-23.9748 -7.31012,-10.516 -18.09113,-24.159 -23.9578,-30.3179 -12.20591,-12.8137 -38.56732,-34.459 -51.33333,-42.1497 C 541.9,1139.1644 530.8,1132.2086 522,1126.5787 c -31.90932,-20.4144 -74.50223,-39.5907 -106,-47.7237 -42.64831,-11.0122 -46.38813,-11.53 -82.66667,-11.446 -28.46389,0.066 -34.4144,0.453 -46.25121,3.0085 -17.45624,3.7687 -33.38436,9.4164 -51.74879,18.3487 -19.25581,9.3658 -31.41046,17.4879 -49.70885,33.217 -16.84895,14.4832 -24.95984,23.9489 -38.85912,45.3501 -15.3284,23.6017 -22.30728,38.4706 -28.9999,61.7859 -8.22731,28.6618 -10.67004,41.2371 -13.04309,67.1466 -2.01875,22.0412 -2.00611,22.4942 1.25257,44.8953 6.06958,41.724 8.21179,48.7877 22.79113,75.1512 9.80293,17.7262 7.89746,15.2758 29.87638,38.4217 17.44516,18.3713 20.92456,21.3191 40.95003,34.6929 33.9636,22.6824 46.55417,28.4059 82.04516,37.2966 11.93264,2.989 26.49569,6.8666 32.36236,8.6168 5.86667,1.7501 17.86667,4.5498 26.66667,6.2216 14.96092,2.8421 18.81417,3.0128 59.33333,2.6285 l 43.33333,-0.4109 27.33334,-5.1558 c 28.76817,-5.4264 39.2053,-8.4841 56.66666,-16.602 5.86667,-2.7274 17.43991,-7.8853 25.71831,-11.4618 8.27841,-3.5766 17.57841,-8.2259 20.66667,-10.3319 3.08826,-2.106 13.41502,-8.4823 22.94836,-14.1695 46.15684,-27.535 69.69617,-47.7641 92.20118,-79.2352 12.18707,-17.0424 16.19538,-21.49 19.36754,-21.49 1.32172,0 11.25946,8.4786 22.08388,18.8414 10.8244,10.3626 24.18073,22.7849 29.68073,27.6048 5.5,4.8198 17.50841,15.9913 26.68537,24.8253 42.82968,41.2292 50.76955,48.032 79.97019,68.5169 12.69933,8.909 70.34787,39.9643 79.69036,42.9294 2.74308,0.8705 13.39201,4.7889 23.66429,8.7074 14.55643,5.5528 25.29315,8.475 48.66669,13.2455 30.5508,6.2355 76.6595,12.5987 91.5908,12.6399 15.5106,0.043 26.536,3.6281 39.0656,12.7036 9.3589,6.7788 27.2999,17.0388 44.3567,25.3662 8.5714,4.1848 16.2267,8.3826 17.0117,9.3286 3.2276,3.889 2.4531,13.3661 -5.8809,71.9577 -12.9907,91.3303 -20.195,143.7179 -25.4868,185.3333 -2.611,20.5334 -5.0218,38.1131 -5.3574,39.066 -1.2465,3.5395 -20.7299,139.2976 -23.9575,166.934 -3.974,34.0262 -7.1434,51.2843 -13.2226,72 -5.8768,20.0262 -16.6215,45.065 -22.8341,53.2115 -11.7292,15.3803 -34.6655,26.7072 -54.2056,26.7688 -7.7101,0.024 -35.2367,-6.946 -44.926,-11.3763 -17.16377,-7.8478 -31.412,-21.8376 -38.7794,-38.0756 -4.34233,-9.5708 -4.63972,-9.3786 12.97825,-8.383 23.22295,1.3125 35.47855,-2.749 49.95115,-16.5535 13.6484,-13.0184 19.6859,-27.2925 19.6859,-46.5425 0,-26.9706 -15.4215,-49.4584 -39.4439,-57.5178 -20.17376,-6.7682 -34.85843,-6.3565 -51.18457,1.4348 -10.18007,4.8583 -21.66907,15.8278 -26.97604,25.7563 -4.74636,8.8797 -10.39552,30.9489 -10.39552,40.6116 0,15.2983 5.05081,45.4672 10.41772,62.2261 8.13006,25.3874 18.08028,37.301 43.8815,52.5406 19.59851,11.576 29.00921,15.6858 45.22231,19.7493 24.4091,6.1179 31.8759,6.5692 58.0385,3.5088 z m 366.44,-636.2497 c -31.0599,-2.1991 -82.0944,-9.9864 -116.6667,-17.8022 -13.2,-2.984 -33.6,-7.44 -45.3333,-9.9021 -29.0285,-6.0912 -36.6667,-9.7169 -36.6667,-17.4051 0,-5.8417 3.9752,-8.201 16.8395,-9.9942 6.5049,-0.9068 26.1533,-5.1919 43.6629,-9.5226 33.0552,-8.1756 58.5296,-17.4328 80.8309,-29.3733 13.6362,-7.3012 78.9283,-48.2516 88,-55.1925 11.0906,-8.4858 35.6819,-34.3254 46.2932,-48.6434 25.7084,-34.6884 39.2342,-65.1317 46.1802,-103.9406 8.7249,-48.748 8.005,-81.8707 -2.637,-121.3334 -12.0062,-44.5214 -37.5029,-95.9402 -63.0841,-127.2208 -27.2804,-33.3585 -64.4613,-56.2239 -127.2665,-78.2661 -16.2523,-5.7039 -19.4858,-7.9168 -19.4858,-13.3357 0,-2.0585 4.2198,-17.99725 9.3772,-35.41954 5.1574,-17.42229 11.9999,-42.19511 15.2055,-55.05069 6.5492,-26.26455 20.684,-75.87179 27.9351,-98.04047 2.6385,-8.06667 9.291,-32.06667 14.7833,-53.33333 14.1281,-54.70491 19.6581,-73.72167 26.7535,-92 3.4161,-8.8 8.4857,-22.3 11.2658,-30 8.7578,-24.25539 47.7668,-108.86211 58.4014,-126.66667 42.262,-70.75549 85.9928,-118.92721 130.4166,-143.66053 21.7986,-12.13647 55.2932,-22.4523 83.5538,-25.73319 17.4606,-2.02708 64.8261,-0.90819 79.6412,1.88132 11.3853,2.14373 36.4113,11.04769 49.4862,17.60664 26.443,13.26489 61.2894,49.22693 83.7815,86.46388 15.7715,26.11048 23.7369,46.66055 34.9272,90.10855 l 4.2927,16.66666 0.5165,45.69476 c 0.5779,51.10818 -0.142,57.86614 -9.7007,91.0755 -8.5061,29.55277 -15.2554,42.81853 -45.7372,89.89641 -13.5854,20.98221 -24.401,34.87183 -39.134,50.25672 -12.2501,12.79216 -72.4468,67.90125 -86.3121,79.01744 -15.1699,12.16197 -44.9579,30.13232 -77.4535,46.72584 -33.209,16.9578 -36.01,19.13285 -34.1553,26.52271 1.4868,5.92369 9.2288,8.47259 28.822,9.48919 25.6221,1.3293 44.0832,4.1818 81.9163,12.657 41.2916,9.25 68.3932,16.7103 82.0837,22.5954 5.5,2.3642 15.8977,6.4098 23.1061,8.9902 14.975,5.3606 51.0739,24.8624 65.8618,35.5806 35.2174,25.5253 66.4542,61.7279 79.2929,91.8985 6.9109,16.2403 9.0769,27.4675 9.0317,46.813 -0.1186,50.9196 -6.8502,82.2793 -27.9117,130.0387 -8.1808,18.551 -33.4551,52.6906 -58.3205,78.7771 -10.8499,11.3825 -22.127,23.6288 -25.0603,27.2139 -2.9333,3.5849 -13.4333,12.6562 -23.3333,20.1584 -9.9,7.5022 -23.4,18.2298 -30,23.8392 -6.6,5.6093 -16.5,12.9782 -22,16.3754 -5.5,3.3971 -14.9236,9.6951 -20.9414,13.9955 -15.1428,10.8212 -36.0014,20.9544 -101.7253,49.4184 -58.5343,25.3501 -87.2328,35.6317 -120.2815,43.092 -8.2033,1.8519 -31.4458,7.4783 -51.6501,12.5032 -40.0336,9.9565 -59.9539,13.8809 -81.2097,15.9991 -12.6768,1.2632 -41.668,1.5134 -56.192,0.4852 z m 524,-1101.77603 c 3.9702,-3.97022 3.5556,-11.10724 -0.8466,-14.5699 -1.9321,-1.51989 -4.5512,-2.76344 -5.8201,-2.76344 -1.2689,0 -3.888,1.24355 -5.8201,2.76344 -7.0448,5.54142 -3.0958,17.23656 5.8201,17.23656 2.2223,0 5.1852,-1.18518 6.6667,-2.66666 z m -48.4194,-68.23242 c 5.1896,-4.87536 3.4631,-13.34302 -3.2402,-15.89162 -7.621,-2.89751 -15.3683,4.82694 -12.4746,12.43792 2.5268,6.64588 10.4608,8.38957 15.7148,3.4537 z M 1876,422.66667 c 5.7709,-5.77091 1.5088,-16 -6.6667,-16 -5.1324,0 -9.3333,4.20096 -9.3333,9.33333 0,5.13237 4.2009,9.33333 9.3333,9.33333 2.2223,0 5.1852,-1.18518 6.6667,-2.66666 z M 1115.3333,1528.5741 c -6.0033,-3.1158 -10.0161,-7.2564 -29.6318,-30.5741 -41.133,-48.8961 -71.2784,-105.1723 -85.91398,-160.3861 -3.69017,-13.9214 -4.20821,-18.2154 -4.7792,-39.6139 -0.88721,-33.2501 2.81953,-52.2013 16.52298,-84.4758 7.7405,-18.2305 12.5254,-26.7961 29.4281,-52.6797 21.4665,-32.8724 26.5245,-37.4436 70.3739,-63.6006 30.4264,-18.1499 37.2327,-21.1232 63.9664,-27.9438 30.1683,-7.6969 48.062,-9.7192 78.7003,-8.8947 37.3454,1.0051 55.3333,5.0743 55.3333,12.5174 0,0.9853 -4.518,22.2517 -10.0401,47.2588 -11.1293,50.4001 -21.4585,105.2618 -25.9481,137.8184 -1.6181,11.7333 -5.8972,33.2193 -9.5091,47.7466 -8.1411,32.7433 -15.1878,75.8193 -23.1619,141.5867 -3.3788,27.8667 -6.4968,52.1667 -6.9291,54 -1.5768,6.6879 -4.4607,10.4515 -10.042,13.1054 -7.4677,3.5508 -28.8243,7.9317 -46.3697,9.5117 -7.7,0.6935 -20.8225,2.4883 -29.1612,3.9885 -18.1108,3.2584 -27.4371,3.4388 -32.8388,0.6352 z m 157.6361,-25.5729 c -3.1998,-3.5357 -3.0159,-6.8153 3.0282,-53.98 4.8807,-38.0864 14.8014,-92.1556 22.6944,-123.6879 1.3768,-5.5 3.7287,-18.1 5.2265,-28 7.3404,-48.5158 12.3826,-76.5846 18.6825,-104 3.7916,-16.5 10.418,-47.4746 14.7253,-68.8326 4.3072,-21.3579 8.7397,-41.0066 9.85,-43.6637 3.3037,-7.9071 5.8414,-8.2663 25.8881,-3.6648 9.6663,2.2189 22.3607,6.1082 28.2099,8.643 11.8004,5.1137 35.3548,18.7099 58.7257,33.898 20.6173,13.3986 43.1439,35.7972 53.2557,52.9535 3.8902,6.6 10.8926,18.361 15.5612,26.1356 14.1955,23.6399 15.3407,26.9935 16.799,49.1977 2.0008,30.4655 1.1078,39.0183 -6.1952,59.3333 -8.6732,24.1265 -21.6111,49.8348 -31.936,63.459 -4.7763,6.3024 -18.1515,20.6353 -29.7227,31.851 -17.4292,16.8936 -24.7281,22.8583 -42.5437,34.767 -33.2583,22.231 -57.1698,33.3236 -117.2183,54.377 -41.1162,14.4158 -41.9459,14.6224 -45.0306,11.2139 z m -958.76148,-25.176 c -34.4872,-7.3976 -88.50269,-31.9896 -111.54125,-50.7823 -20.17707,-16.4584 -39.7001,-47.6133 -49.16731,-78.4612 -6.13561,-19.9923 -7.21873,-28.8236 -6.50189,-53.0142 0.54554,-18.4101 1.16672,-23.3243 4.24308,-33.5675 7.24173,-24.1126 24.31826,-53.8914 41.62008,-72.579 24.60328,-26.5738 73.74541,-46.3365 126.4727,-50.8615 23.08172,-1.9808 77.23726,-0.754 95.33334,2.1597 48.01788,7.7314 111.57837,30.8924 132.3252,48.2184 8.20152,6.8492 47.19662,48.3405 53.67436,57.1102 4.62814,6.2657 23.35009,30.0645 39.6671,50.4236 9.2368,11.525 11.66667,15.4509 11.66667,18.8497 0,3.3062 -3.22775,8.8573 -14.04371,24.1525 -24.32628,34.4007 -38.2404,48.5865 -67.60869,68.9289 -28.73064,19.9008 -54.14661,32.4418 -89.68093,44.2514 -65.04222,21.6161 -134.24626,32.0809 -166.45875,25.1713 z m -56.72311,-45.9063 c 6.57672,-3.5197 5.73087,-14.2634 -1.35402,-17.1981 -9.77979,-4.0509 -17.83535,7.7877 -10.56504,15.5265 3.11162,3.3123 7.6613,3.9503 11.91906,1.6716 z M 192,1403.8176 c 0,-0.8337 -2.41028,-9.1843 -5.35616,-18.5569 -8.36539,-26.6152 -18.19015,-63.5267 -23.36361,-87.7766 -2.59908,-12.1829 -5.06,-23.2612 -5.46871,-24.6183 -1.33015,-4.417 -2.94479,-0.4455 -5.19032,12.7663 -2.15659,12.6886 -2.14012,13.2581 0.77108,26.6667 5.39337,24.8412 15.73327,60.7596 20.39633,70.8521 5.75606,12.4583 18.21139,26.5928 18.21139,20.6667 z m 41.33333,-53.1509 c 6.01066,-6.0107 1.49263,-16 -7.23656,-16 -4.88964,0 -10.09677,4.8134 -10.09677,9.3333 0,1.2689 1.24355,3.888 2.76344,5.8201 3.46265,4.4022 10.59968,4.8168 14.56989,0.8466 z m -18.76344,-82.1798 c 1.5199,-1.9323 2.76344,-4.5514 2.76344,-5.8202 0,-1.2689 -1.24354,-3.888 -2.76344,-5.8202 -5.54141,-7.0448 -17.23656,-3.0957 -17.23656,5.8202 0,8.9159 11.69515,12.8649 17.23656,5.8202 z M 1144.1932,2108 c 0.5295,-2.5667 0.4183,-5.2209 -0.2469,-5.8983 -0.6653,-0.6774 -10.9754,-1.7049 -22.9113,-2.2833 -11.9359,-0.5784 -33.372,-2.2739 -47.6358,-3.7676 -14.2638,-1.4937 -26.4339,-2.216 -27.0448,-1.6052 -0.6108,0.6108 1.1616,3.6711 3.9388,6.8005 l 5.0494,5.6899 17.9953,1.9131 c 27.0739,2.878 46.0676,4.1692 58.6107,3.984 l 11.282,-0.1664 z m 106.4735,1.2208 c 50.1932,-4.2065 88.4773,-9.7751 132,-19.2 190.9937,-41.3601 360.242,-132.3516 504.6317,-271.3008 128.5969,-123.7512 229.9413,-296.3029 276.4673,-470.72 14.9919,-56.2019 23.185,-102.2312 30.3779,-170.6667 4.8395,-46.0437 4.9759,-48.7501 5.0064,-99.3333 0.028,-46.399 -0.3596,-56.1648 -3.5988,-90.66667 -8.58,-91.38842 -22.9476,-160.38622 -50.2605,-241.36562 -14.9839,-44.42504 -42.4559,-111.02276 -46.3304,-112.31428 -1.2024,-0.40079 -1.627,2.68341 -1.627,11.81856 0,12.29566 0.049,12.4784 9.3375,34.63001 36.2517,86.45721 61.3823,179.95224 71.8295,267.23133 6.5072,54.36377 7.5054,72.15217 7.37,131.33337 -0.1267,55.3772 -0.2394,57.6981 -4.9447,102 -7.1387,67.2128 -16.0448,115.0941 -32.1709,172.9574 -46.0615,165.2771 -140.2624,326.8639 -259.3659,444.9006 -147.4917,146.1709 -322.6647,240.6546 -521.8195,281.4561 -43.2575,8.8623 -76.0917,13.3193 -128.236,17.4072 -20.5333,1.6097 -38.0833,3.1371 -39,3.3941 -1.6812,0.4716 -2.3978,10.0423 -0.8665,11.5736 0.9203,0.9203 7.939,0.4906 51.1999,-3.1349 z M 961.4748,2087.888 c 2.85552,-2.2616 5.19187,-4.6191 5.19187,-5.2388 0,-0.6197 -3.45,-1.8111 -7.66667,-2.6475 -66.66623,-13.2228 -143.42641,-37.6673 -211.66667,-67.406 -22.46116,-9.7884 -78.98168,-38.7022 -101.33333,-51.8384 -40.7292,-23.9366 -86.42039,-55.4 -124.28719,-85.585 -110.80437,-88.3268 -205.38253,-204.5443 -269.84782,-331.5887 -10.40119,-20.498 -10.86526,-21.1547 -16.72538,-23.6667 -8.12933,-3.4846 -10.23632,-3.3877 -9.05198,0.4164 1.46268,4.6982 15.59028,32.512 27.97397,55.0739 64.89061,118.2245 152.3894,223.3524 254.60507,305.9025 112.36606,90.7476 240.4318,156.655 378.20193,194.6368 25.07865,6.9139 62.36268,15.8072 66.93953,15.9671 1.36114,0.048 4.81114,-1.764 7.66667,-4.0256 z m 285.6787,-33.3181 c 7.0448,-5.5414 3.0957,-17.2366 -5.8202,-17.2366 -8.9159,0 -12.8649,11.6952 -5.8202,17.2366 1.9323,1.5198 4.5514,2.7634 5.8202,2.7634 1.2689,0 3.888,-1.2436 5.8202,-2.7634 z m -166.2394,-1.469 c 5.1895,-4.8753 3.463,-13.343 -3.2403,-15.8916 -7.6211,-2.8976 -15.3683,4.827 -12.4746,12.4379 2.5268,6.6459 10.4609,8.3896 15.7149,3.4537 z M 1330.6667,2044 c 5.7709,-5.7709 1.5088,-16 -6.6667,-16 -5.1324,0 -9.3333,4.2009 -9.3333,9.3333 0,5.1324 4.2009,9.3334 9.3333,9.3334 2.2222,0 5.1852,-1.1852 6.6667,-2.6667 z m -332.05198,-1.5848 c 5.80238,-6.2281 1.40058,-15.7485 -7.28139,-15.7485 -2.97681,0 -5.50774,1.0142 -7.28138,2.9181 -5.8024,6.2281 -1.4006,15.7485 7.28138,15.7485 2.97682,0 5.50775,-1.0142 7.28139,-2.9181 z m 414.29928,-15.9809 c 6.4769,-6.0848 2.1437,-16.301 -6.914,-16.301 -3.6261,0 -5.6995,0.8511 -7.5051,3.0811 -7.818,9.6548 5.3566,21.7336 14.4191,13.2199 z m -497.16541,-1.153 c 6.20852,-5.784 1.94045,-17.2813 -6.41526,-17.2813 -5.10861,0 -9.33333,4.5265 -9.33333,10 0,5.4735 4.22472,10 9.33333,10 1.92344,0 4.81031,-1.2233 6.41526,-2.7187 z m 577.91811,-24.1525 c 7.827,-9.25 -5.7138,-21.2265 -14.5807,-12.8964 -3.3152,3.1144 -3.95,7.6617 -1.6655,11.9304 3.0092,5.6229 11.8603,6.1492 16.2462,0.966 z m -657.54774,-0.9571 c 2.22992,-1.8056 3.08104,-3.8789 3.08104,-7.505 0,-8.9551 -9.62545,-13.1967 -16.11407,-7.101 -9.12476,8.5723 3.2952,22.4912 13.03303,14.606 z m 734.54774,-29.505 c 6.0106,-6.0107 1.4926,-16 -7.2366,-16 -4.8896,0 -10.0968,4.8134 -10.0968,9.3333 0,1.2689 1.2436,3.888 2.7635,5.8201 3.4627,4.4022 10.5996,4.8168 14.5699,0.8466 z m -810.76347,-3.5132 c 1.51989,-1.9322 2.76344,-4.5512 2.76344,-5.8202 0,-1.2689 -1.24355,-3.888 -2.76344,-5.8201 -5.54142,-7.0448 -17.23656,-3.0957 -17.23656,5.8201 0,8.9159 11.69514,12.865 17.23656,5.8202 z m 885.76347,-35.358 c 7.827,-9.25 -5.7138,-21.2266 -14.5807,-12.8964 -3.3152,3.1144 -3.95,7.6617 -1.6655,11.9304 3.0092,5.6229 11.8603,6.1492 16.2462,0.966 z m -960.38531,-2.7136 c 5.8024,-6.2282 1.4006,-15.7486 -7.28139,-15.7486 -2.97681,0 -5.50775,1.0143 -7.28139,2.9182 -5.8024,6.2281 -1.4006,15.7485 7.28139,15.7485 2.97681,0 5.50775,-1.0143 7.28139,-2.9181 z M 1716,1888 c 6.0107,-6.0107 1.4927,-16 -7.2365,-16 -4.8896,0 -10.0968,4.8135 -10.0968,9.3333 0,1.269 1.2436,3.888 2.7634,5.8202 3.4627,4.4021 10.5996,4.8168 14.5699,0.8465 z m -1101.7526,-2.8991 c 6.47689,-6.0848 2.14368,-16.3009 -6.91407,-16.3009 -3.62618,0 -5.69944,0.8511 -7.50512,3.0811 -7.818,9.6548 5.35666,21.7336 14.41919,13.2198 z M 1783,1837.1288 c 3.1679,-3.7437 2.9345,-8.9836 -0.5657,-12.7095 -7.268,-7.7364 -19.8063,0.4971 -15.733,10.3311 2.8095,6.7825 11.4991,8.0505 16.2987,2.3784 z m -1235.41927,-2.6945 c 6.4769,-6.0848 2.14368,-16.301 -6.91406,-16.301 -3.62619,0 -5.69944,0.8511 -7.50512,3.0811 -7.818,9.6548 5.35665,21.7336 14.41918,13.2199 z m 1297.33327,-52 c 6.3005,-5.9191 1.9017,-17.101 -6.7272,-17.101 -5.3491,0 -10.1868,4.6603 -10.1868,9.8132 0,8.8408 10.4624,13.3487 16.914,7.2878 z m -1359.58067,-3.7676 c 3.97022,-3.9703 3.55558,-11.1072 -0.84648,-14.5699 -1.93222,-1.5199 -4.5513,-2.7635 -5.82018,-2.7635 -1.26888,0 -3.88796,1.2436 -5.82019,2.7635 -7.04477,5.5413 -3.09572,17.2365 5.82019,17.2365 2.22222,0 5.18518,-1.1852 6.66666,-2.6666 z m 1417.33337,-57.3334 c 6.0106,-6.0106 1.4926,-16 -7.2366,-16 -4.8896,0 -10.0968,4.8135 -10.0968,9.3334 0,1.2689 1.2436,3.888 2.7635,5.8201 3.4627,4.4021 10.5996,4.8168 14.5699,0.8465 z m -1475.84855,-2.7477 c 6.57672,-3.5197 5.73086,-14.2635 -1.35403,-17.1981 -9.77979,-4.051 -17.83535,7.7877 -10.56504,15.5265 3.11163,3.3123 7.66131,3.9503 11.91907,1.6716 z m 1527.42915,-62.818 c 6.477,-6.0848 2.1438,-16.3009 -6.914,-16.3009 -3.6261,0 -5.6994,0.851 -7.505,3.081 -7.818,9.6548 5.3565,21.7336 14.419,13.2199 z m -1576.58063,-5.3055 c 3.16782,-3.7437 2.93458,-8.9836 -0.56575,-12.7094 -7.26793,-7.7364 -19.80629,0.497 -15.73289,10.331 2.80938,6.7826 11.49905,8.0506 16.29864,2.3784 z m 1621.48683,-63.8922 c 7.0448,-5.5414 3.0957,-17.2366 -5.8202,-17.2366 -8.9158,0 -12.8649,11.6952 -5.8201,17.2366 1.9321,1.5198 4.5512,2.7634 5.8201,2.7634 1.269,0 3.888,-1.2436 5.8202,-2.7634 z m -1667.57277,-5.469 c 5.18958,-4.8753 3.46303,-13.343 -3.24029,-15.8916 -7.62104,-2.8976 -15.36825,4.827 -12.47457,12.4379 2.52676,6.6459 10.46086,8.3896 15.71486,3.4537 z m -193.571,-419.0262 4.64328,-7.2586 -1.55092,-13.7414 c -0.89709,-7.9485 -1.56264,-34.5386 -1.57874,-63.0747 -0.0299,-53.0078 2.19938,-86.63583 9.19257,-138.66667 C 167.06061,802.845 213.002,670.81804 282.91881,553.65928 353.39225,435.56781 445.74477,333.49777 556.35775,251.44856 647.80683,183.61452 763.69169,126.44147 874.41555,94.531311 941.17728,75.290849 997.3962,64.61326 1068,57.764049 c 34.7556,-3.371612 42.895,-3.68877 95.3333,-3.714756 62.0488,-0.03075 91.8655,1.899958 145.1764,9.400534 183.7663,25.855004 365.0851,105.908733 505.2199,223.058763 15.6451,13.07904 15.8205,13.17164 27.0761,14.29484 l 9.1943,0.91749 -2.6667,-3.06919 C 1837.3635,287.17692 1773.9015,238.05253 1738,214.01937 1607.7383,126.81963 1455.0297,69.425321 1300,49.400416 c -49.9362,-6.450164 -82.2879,-8.477287 -136.6667,-8.563384 -48.9337,-0.07748 -54.625,0.172393 -96.5176,4.237471 C 964.2914,55.023015 873.23541,76.453357 785.31021,111.32778 664.12868,159.39291 564.51793,220.72287 470,305.46309 c -24.56508,22.02386 -72.80628,71.47135 -94,96.35048 -94.75656,111.23399 -162.8838,235.38066 -204.60839,372.8531 -28.67122,94.46474 -42.81277,186.38708 -44.34708,288.26323 -0.77147,51.2249 1.9024,106.4034 5.15616,106.4034 0.64117,0 3.25524,-3.2663 5.80904,-7.2586 z m 1998.14177,-51.4891 c 6.5768,-3.5198 5.7309,-14.2634 -1.354,-17.1981 -9.7799,-4.0509 -17.8354,7.7877 -10.5651,15.5266 3.1116,3.3121 7.6613,3.9502 11.9191,1.6715 z m -1938.48483,-8.1235 c 7.82708,-9.25 -5.71367,-21.2265 -14.58074,-12.8964 -3.31517,3.1145 -3.94996,7.6618 -1.66544,11.9305 3.00931,5.6229 11.86026,6.1492 16.24618,0.9659 z M 2136,1025.3333 c 6.0107,-6.0106 1.4927,-16 -7.2365,-16 -4.8896,0 -10.0968,4.8134 -10.0968,9.3334 0,1.2688 1.2436,3.8879 2.7634,5.8202 3.4627,4.402 10.5996,4.8166 14.5699,0.8464 z m -1936.41927,-5.5657 c 6.4769,-6.0847 2.14368,-16.3009 -6.91406,-16.3009 -3.62619,0 -5.69944,0.8511 -7.50512,3.081 -7.818,9.6548 5.35665,21.7337 14.41918,13.2199 z M 2126.7856,942.83845 c 2.23,-1.80568 3.0811,-3.87893 3.0811,-7.50512 0,-8.95504 -9.6255,-13.19665 -16.114,-7.10092 -9.1248,8.57227 3.2952,22.49126 13.0329,14.60604 z M 205.84715,938.49371 c 4.41133,-2.00995 6.68128,-7.59691 4.94356,-12.16748 -2.51071,-6.60366 -10.4738,-8.34139 -15.70478,-3.42715 -4.95974,4.65945 -3.50154,13.27256 2.6679,15.75828 3.91926,1.57911 4.28458,1.57172 8.09332,-0.16365 z M 2111.9032,859.15352 c 1.5199,-1.93223 2.7635,-4.55131 2.7635,-5.82019 0,-1.26888 -1.2436,-3.88796 -2.7635,-5.82018 -5.5413,-7.04478 -17.2365,-3.09572 -17.2365,5.82018 0,8.91591 11.6952,12.86496 17.2365,5.82019 z M 225.33333,854.66667 c 6.01066,-6.01066 1.49263,-16 -7.23656,-16 C 213.20713,838.66667 208,843.48008 208,848 c 0,1.26888 1.24355,3.88796 2.76344,5.82019 3.46265,4.40205 10.59968,4.81669 14.56989,0.84648 z M 2088,780 c 3.9703,-3.97021 3.5556,-11.10724 -0.8465,-14.56989 -1.9322,-1.5199 -4.5512,-2.76344 -5.8202,-2.76344 -1.2689,0 -3.888,1.24354 -5.8201,2.76344 -7.0448,5.54141 -3.0957,17.23656 5.8201,17.23656 2.2223,0 5.1852,-1.18519 6.6667,-2.66667 z M 247.74859,774.61472 c 6.20852,-5.78411 1.94045,-17.28139 -6.41526,-17.28139 -5.10861,0 -9.33333,4.5265 -9.33333,10 0,5.47351 4.22472,10 9.33333,10 1.92344,0 4.81031,-1.22337 6.41526,-2.71861 z M 278.66667,696 c 6.01065,-6.01065 1.49262,-16 -7.23656,-16 -4.88964,0 -10.09678,4.81341 -10.09678,9.33333 0,1.26888 1.24355,3.88796 2.76344,5.82019 3.46266,4.40205 10.59968,4.81669 14.5699,0.84648 z m 37.28138,-74.91808 c 5.8024,-6.22813 1.4006,-15.74859 -7.28138,-15.74859 -5.47351,0 -10,4.22472 -10,9.33334 0,8.3557 11.49728,12.62377 17.28138,6.41525 z m 42.71862,-71.74859 c 1.48148,-1.48148 2.66666,-4.44444 2.66666,-6.66666 0,-2.22223 -1.18518,-5.18519 -2.66666,-6.66667 -1.48148,-1.48148 -4.44444,-2.66667 -6.66667,-2.66667 -2.22223,0 -5.18519,1.18519 -6.66667,2.66667 -1.48148,1.48148 -2.66666,4.44444 -2.66666,6.66667 0,2.22222 1.18518,5.18518 2.66666,6.66666 C 346.81481,550.81481 349.77777,552 352,552 c 2.22223,0 5.18519,-1.18519 6.66667,-2.66667 z m 49.08192,-66.71861 c 6.20852,-5.78411 1.94045,-17.28139 -6.41526,-17.28139 -5.10861,0 -9.33333,4.5265 -9.33333,10 0,5.47351 4.22472,10 9.33333,10 1.92344,0 4.81031,-1.22337 6.41526,-2.71861 z m 54.91808,-63.94805 c 1.48148,-1.48148 2.66666,-4.44444 2.66666,-6.66667 0,-2.22223 -1.18518,-5.18519 -2.66666,-6.66667 -1.48148,-1.48148 -4.44444,-2.66666 -6.66667,-2.66666 -2.22223,0 -5.18519,1.18518 -6.66667,2.66666 -1.48148,1.48148 -2.66666,4.44444 -2.66666,6.66667 0,2.22223 1.18518,5.18519 2.66666,6.66667 1.48148,1.48148 4.44444,2.66666 6.66667,2.66666 2.22223,0 5.18519,-1.18518 6.66667,-2.66666 z m 59.74858,-57.38528 C 528.62377,355.49728 524.35571,344 516,344 c -5.10861,0 -9.33333,4.52649 -9.33333,10 0,5.47351 4.22472,10 9.33333,10 1.92344,0 4.81031,-1.22337 6.41525,-2.71861 z m 65.16548,-53.5138 c 6.4769,-6.08474 2.14368,-16.30092 -6.91406,-16.30092 -3.62619,0 -5.69944,0.85112 -7.50512,3.08104 -7.818,9.65482 5.35665,21.73368 14.41918,13.21988 z M 1682.6667,264 c 6.0106,-6.01065 1.4926,-16 -7.2366,-16 -4.8896,0 -10.0968,4.81341 -10.0968,9.33333 0,1.26888 1.2436,3.88796 2.7635,5.82019 3.4627,4.40205 10.5996,4.81669 14.5699,0.84648 z M 656.91407,261.10092 C 663.21456,255.18191 658.81579,244 650.18685,244 644.83776,244 640,248.66028 640,253.81315 c 0,8.84082 10.46243,13.34877 16.91407,7.28777 z m 953.65583,-39.28073 c 1.5198,-1.93223 2.7634,-4.55131 2.7634,-5.82019 0,-1.26888 -1.2436,-3.88796 -2.7634,-5.82019 -5.5414,-7.04477 -17.2366,-3.09572 -17.2366,5.82019 0,8.91591 11.6952,12.86496 17.2366,5.82019 z m -880.00001,-2.66667 c 1.5199,-1.93223 2.76344,-4.55131 2.76344,-5.82019 0,-1.26888 -1.24354,-3.88796 -2.76344,-5.82018 -5.54141,-7.04478 -17.23656,-3.09572 -17.23656,5.82018 0,8.91591 11.69515,12.86496 17.23656,5.82019 z M 1533.3333,188 c 5.771,-5.77091 1.5088,-16 -6.6666,-16 -5.1324,0 -9.3334,4.20096 -9.3334,9.33333 0,5.13238 4.201,9.33334 9.3334,9.33334 2.2222,0 5.1852,-1.18519 6.6666,-2.66667 z m -727.0859,-1.56575 c 6.30049,-5.91901 1.90172,-17.10092 -6.72721,-17.10092 -5.3491,0 -10.18686,4.66028 -10.18686,9.81315 0,8.84083 10.46243,13.34877 16.91407,7.28777 z M 1454.6667,160 c 5.7709,-5.77091 1.5088,-16 -6.6667,-16 -5.1324,0 -9.3333,4.20096 -9.3333,9.33333 0,5.13238 4.2009,9.33334 9.3333,9.33334 2.2223,0 5.1852,-1.18519 6.6667,-2.66667 z m -569.75263,-1.56575 c 3.95518,-3.7157 4.03785,-9.91578 0.18685,-14.01498 -6.08473,-6.4769 -16.30092,-2.14368 -16.30092,6.91406 0,8.95504 9.62545,13.19666 16.11407,7.10092 z m 489.70063,-20.019 c 5.8024,-6.22813 1.4006,-15.74858 -7.2814,-15.74858 -2.9768,0 -5.5077,1.01429 -7.2813,2.91808 -5.8024,6.22813 -1.4007,15.74858 7.2813,15.74858 2.9768,0 5.5078,-1.01429 7.2814,-2.91808 z m -407.99998,-1.33333 c 5.8024,-6.22814 1.4006,-15.74859 -7.28139,-15.74859 -2.97681,0 -5.50774,1.0143 -7.28138,2.91808 -5.8024,6.22814 -1.4006,15.74859 7.28138,15.74859 2.97682,0 5.50775,-1.01429 7.28139,-2.91808 z m 82.62188,-13.9284 c 1.5199,-1.93223 2.7634,-4.55131 2.7634,-5.82019 0,-1.26887 -1.2435,-3.88796 -2.7634,-5.82018 -5.5415,-7.04477 -17.2366,-3.09573 -17.2366,5.82018 0,8.91591 11.6951,12.86496 17.2366,5.82019 z M 1292,124 c 6.0107,-6.01066 1.4926,-16 -7.2366,-16 -4.8896,0 -10.0967,4.81341 -10.0967,9.33333 0,1.26888 1.2435,3.88796 2.7634,5.82019 3.4627,4.40205 10.5997,4.81669 14.5699,0.84648 z m -160.2514,-6.71861 C 1137.9571,111.49728 1133.689,100 1125.3333,100 c -5.1086,0 -9.3333,4.52649 -9.3333,10 0,5.47351 4.2247,10 9.3333,10 1.9235,0 4.8103,-1.22337 6.4153,-2.71861 z m 76.2514,0.0519 c 5.7709,-5.77091 1.5088,-16 -6.6667,-16 -5.1323,0 -9.3333,4.20096 -9.3333,9.33334 0,5.13238 4.201,9.33333 9.3333,9.33333 2.2223,0 5.1852,-1.18519 6.6667,-2.66667 z"
       id="path3754"
       inkscape:connector-curvature="0" />
    <path
       style="fill:#080808;stroke-width:1.33333337"
       d="m 1050,2293.7069 c -11.1567,-1.5626 -36.6944,-9.0254 -44.7268,-13.0705 -41.13887,-20.7172 -54.73363,-34.2175 -64.18881,-63.7427 -5.36691,-16.7589 -10.41772,-46.9278 -10.41772,-62.2261 0,-9.6627 5.64916,-31.7319 10.39552,-40.6116 5.30697,-9.9285 16.79597,-20.898 26.97604,-25.7563 16.32614,-7.7913 31.01081,-8.203 51.18457,-1.4348 24.0224,8.0594 39.4439,30.5472 39.4439,57.5178 0,19.25 -6.0375,33.5241 -19.6859,46.5425 -14.4726,13.8045 -26.7282,17.866 -49.95115,16.5535 -17.61797,-0.9956 -17.32058,-1.1878 -12.97825,8.383 7.3674,16.238 21.61563,30.2278 38.7794,38.0756 9.6893,4.4303 37.2159,11.4007 44.926,11.3763 19.5401,-0.061 42.4764,-11.3885 54.2056,-26.7688 6.2126,-8.1465 16.9573,-33.1853 22.8341,-53.2115 6.0792,-20.7157 9.2486,-37.9738 13.2226,-72 3.2276,-27.6364 22.711,-163.3945 23.9575,-166.934 0.3356,-0.9529 2.7464,-18.5326 5.3574,-39.066 5.2918,-41.6154 12.4961,-94.003 25.4868,-185.3333 8.334,-58.5916 9.1085,-68.0687 5.8809,-71.9577 -0.785,-0.946 -8.4403,-5.1438 -17.0117,-9.3286 -17.0568,-8.3274 -34.9978,-18.5874 -44.3567,-25.3662 -12.5296,-9.0755 -23.555,-12.6608 -39.0656,-12.7036 -14.9313,-0.041 -61.04,-6.4044 -91.5908,-12.6399 -23.37354,-4.7705 -34.11026,-7.6927 -48.66669,-13.2455 -10.27228,-3.9185 -20.92121,-7.8369 -23.66429,-8.7074 -9.34249,-2.9651 -66.99103,-34.0204 -79.69036,-42.9294 -29.20064,-20.4849 -37.14051,-27.2877 -79.97019,-68.5169 -9.17696,-8.834 -21.18537,-20.0055 -26.68537,-24.8253 -5.5,-4.8199 -18.85633,-17.2422 -29.68073,-27.6048 -10.82442,-10.3628 -20.76216,-18.8414 -22.08388,-18.8414 -3.17216,0 -7.18047,4.4476 -19.36754,21.49 -22.50501,31.4711 -46.04434,51.7002 -92.20118,79.2352 -9.53334,5.6872 -19.8601,12.0635 -22.94836,14.1695 -3.08826,2.106 -12.38826,6.7553 -20.66667,10.3319 -8.2784,3.5765 -19.85164,8.7344 -25.71831,11.4618 -17.46136,8.1179 -27.89849,11.1756 -56.66666,16.602 l -27.33334,5.1558 L 400,1544.1904 c -40.51916,0.3843 -44.37241,0.2136 -59.33333,-2.6285 -8.8,-1.6718 -20.8,-4.4715 -26.66667,-6.2216 -5.86667,-1.7502 -20.42972,-5.6278 -32.36236,-8.6168 -35.49099,-8.8907 -48.08156,-14.6142 -82.04516,-37.2966 -20.02547,-13.3738 -23.50487,-16.3216 -40.95003,-34.6929 -21.97892,-23.1459 -20.07345,-20.6955 -29.87638,-38.4217 -14.57934,-26.3635 -16.72155,-33.4272 -22.79113,-75.1512 -3.25868,-22.4011 -3.27132,-22.8541 -1.25257,-44.8953 2.37305,-25.9095 4.81578,-38.4848 13.04309,-67.1466 6.69262,-23.3153 13.6715,-38.1842 28.9999,-61.7859 13.89928,-21.4012 22.01017,-30.8669 38.85912,-45.3501 18.29839,-15.7291 30.45304,-23.8512 49.70885,-33.217 18.36443,-8.9323 34.29255,-14.58 51.74879,-18.3487 11.83681,-2.5555 17.78732,-2.9426 46.25121,-3.0085 36.27854,-0.084 40.01836,0.4338 82.66667,11.446 31.49777,8.133 74.09068,27.3093 106,47.7237 8.8,5.6299 19.9,12.5857 24.66667,15.4573 12.76601,7.6907 39.12742,29.336 51.33333,42.1497 5.86667,6.1589 16.64768,19.8019 23.9578,30.3179 7.31012,10.516 15.76668,21.3047 18.79236,23.9748 3.02568,2.6702 8.85097,9.3549 12.94508,14.8549 4.09411,5.5 10.46593,12.9562 14.1596,16.5693 6.14607,6.0119 6.99853,6.4404 10.04909,5.0504 1.90558,-0.8682 4.85958,-4.5306 6.89662,-8.5505 1.95981,-3.8675 5.10841,-9.4402 6.99692,-12.3838 7.77657,-12.1214 55.22269,-107.2398 62.23545,-124.7676 7.75423,-19.3811 34.32329,-121.2042 39.29251,-150.58443 1.5504,-9.16667 7.54318,-38.86667 13.3173,-66 15.37258,-72.23771 24.02394,-116.60698 24.02394,-123.2088 0,-9.57634 18.15248,-98.58091 23.45981,-115.02732 2.67957,-8.30347 8.7538,-24.99722 13.49829,-37.09722 4.74448,-12.1 10.93087,-28.6 13.74754,-36.66666 11.13681,-31.89488 49.20696,-102.36839 71.6672,-132.66667 42.56162,-57.41455 81.34089,-87.87537 141.96229,-111.51021 55.4488,-21.6182 99.6995,-28.30887 149.0492,-22.53612 21.2302,2.48342 32.4154,5.90721 39.7174,12.15744 8.2293,7.044 13.5436,18.76328 9.6107,21.19396 -0.7082,0.43768 -3.6469,-0.4078 -6.5304,-1.87884 -12.8234,-6.54207 -23.2219,-8.21455 -50.7851,-8.1683 -27.8857,0.0468 -42.4601,1.81418 -62.7303,7.607 -18.5013,5.28735 -28.5648,9.57032 -40.9545,17.42999 -6.4417,4.08643 -23.1954,14.45533 -37.2304,23.04204 -30.426,18.61471 -36.2799,23.00848 -57.0557,42.82416 -25.9319,24.73348 -35.0296,36.69284 -48.02401,63.12995 -22.81096,46.40882 -35.30017,73.59828 -37.37909,81.3756 -1.17616,4.4 -4.4694,14.6 -7.31832,22.66666 -15.52345,43.95426 -31.71008,91.9069 -37.48111,111.03722 -6.41296,21.25821 -18.18949,79.5156 -23.23936,114.96278 -1.20141,8.43334 -3.33934,20.57699 -4.75094,26.98588 -1.41159,6.40891 -2.56654,14.8965 -2.56654,18.86131 0,6.82207 -2.0048,18.97596 -8.16281,49.48615 C 867.6904,944 865.3726,957.2 864.01985,966 c -1.35273,8.8 -3.4234,22.3 -4.60146,30 -3.71526,24.2833 -13.86904,70.689 -21.15115,96.6667 -1.85013,6.6 -5.89141,22.8 -8.98065,36 -9.53732,40.7521 -26.95951,94.749 -36.13692,112 -1.56052,2.9333 -7.48783,14.6342 -13.1718,26.0019 -16.55208,33.1037 -24.73118,47.3554 -35.25242,61.4259 -5.42528,7.2555 -10.25126,14.4115 -10.7244,15.9022 -1.59852,5.0365 6.20835,14.3089 25.32367,30.0777 4.39527,3.6257 19.09527,17.3452 32.66667,30.4876 51.1237,49.508 76.57726,68.04 127.34194,92.7141 58.05974,28.22 81.57117,35.7194 116.09277,37.0298 20.1004,0.763 24.5739,-0.1667 24.5739,-5.1071 0,-3.8917 -1.5991,-6.4728 -16.0037,-25.8317 -25.5491,-34.3363 -56.9805,-95.9735 -70.41387,-138.0822 -12.58338,-39.4441 -13.74296,-84.7718 -3.47486,-135.8314 7.81926,-38.8823 24.51055,-78.3827 46.25973,-109.4749 7.4579,-10.6617 32.6111,-39.5272 42.6712,-48.9689 17.1662,-16.1111 60.2255,-40.0154 82.2948,-45.6857 6.2334,-1.6015 14.7843,-4.0613 19.0021,-5.4661 4.2178,-1.4049 18.9178,-4.3032 32.6667,-6.4408 31.4744,-4.8934 83.732,-6.8429 108.7331,-4.0563 19.2778,2.1487 20.7668,1.4758 24.1727,-10.92407 1.2744,-4.6402 5.8385,-19.83673 10.1424,-33.77006 4.3038,-13.93334 13.5962,-47.23334 20.65,-74 7.0537,-26.76667 19.648,-70.56667 27.9872,-97.33334 8.3393,-26.76666 22.0874,-72.61128 30.5514,-101.87692 12.8066,-44.28088 17.8834,-59.49592 30.2527,-90.66666 8.1749,-20.60103 17.0561,-41.35642 19.7359,-46.12308 2.6797,-4.76667 6.2546,-11.96667 7.9441,-16 5.1275,-12.24083 19.3163,-38.61651 29.8213,-55.43542 39.7616,-63.65914 49.4388,-75.82382 88.2154,-110.89053 25.0217,-22.62783 26.7324,-23.98264 38.8586,-30.77351 5.0966,-2.8541 12.1056,-6.81956 15.5756,-8.8121 3.4702,-1.99254 13.6702,-6.22 22.6667,-9.39435 8.9967,-3.17435 21.4575,-7.59423 27.6908,-9.82196 13.4765,-4.8164 31.7615,-8.18485 44.6667,-8.22855 5.1333,-0.0173 19.3273,-0.88602 31.5421,-1.93034 19.2397,-1.64492 24.7509,-1.64368 41.2237,0.009 23.351,2.34308 30.8318,3.63708 51.2342,8.86229 29.9216,7.66318 55.1285,18.95814 80.568,36.10168 10.986,7.40338 20.1536,15.55163 41.5245,36.90727 45.7273,45.69468 63.8367,73.22691 81.1707,123.40629 15.6581,45.32842 21.8892,84.02158 22.0082,136.66667 0.065,29.17119 -0.7985,36.55964 -7.3662,62.95603 -6.7351,27.06832 -11.5271,39.88394 -24.1083,64.47504 -12.8985,25.21149 -18.4516,34.23329 -30.1072,48.91356 -8.7381,11.00573 -54.5131,58.60256 -73.6897,76.62264 -23.8226,22.38581 -60.958,52.07493 -83.0112,66.36606 -5.6583,3.66667 -10.2955,7.36706 -10.305,8.2231 -0.024,2.16414 25.3162,10.21262 45.3162,14.39329 9.8164,2.05193 29.664,8.05279 48.2889,14.59997 28.202,9.9139 33.0331,12.0561 44.6667,19.8067 47.9584,31.9509 84.5713,72.8293 109.1942,121.9154 10.246,20.4255 17.885,43.2647 23.3364,69.7713 3.8104,18.527 4.3036,23.613 4.8515,50.0289 l 0.6099,29.4053 -4.8968,25.928 c -4.8012,25.4215 -13.8087,55.4479 -22.4548,74.8526 -6.9423,15.5803 -28.5608,51.1355 -44.0266,72.4088 -14.961,20.5788 -29.948,37.3424 -58.4096,65.3333 l -29.8265,29.3334 -36,24.1402 c -41.1807,27.6142 -57.1712,37.0886 -80.6667,47.7946 -9.1666,4.1769 -22.6666,10.7793 -30,14.672 -60.0549,31.8777 -107.511,47.778 -177.3669,59.4265 -18.5623,3.0953 -38.4132,5.5348 -49.5085,6.084 -21.4836,1.0633 -99.4246,-1.2741 -139.1246,-4.1724 -26.6501,-1.9456 -80.466,-9.4624 -115.3333,-16.1095 -22.9013,-4.3658 -70.6036,-16.7462 -84,-21.801 -5.8667,-2.2136 -11.7052,-4.027 -12.9746,-4.0296 -2.8192,0 -2.7383,-0.3802 -7.0616,32.6618 -1.9191,14.6667 -5.5353,40.4667 -8.036,57.3334 -5.1288,34.591 -26.7049,199.1145 -39.9551,304.6666 -13.714,109.2474 -19.0348,134.8982 -35.2865,170.1094 -14.6714,31.7874 -29.3014,48.1282 -50.6088,56.5268 -11.4979,4.5321 -47.154,7.8276 -62.0774,5.7374 z m 460.8587,-637.7494 c 21.2558,-2.1182 41.1761,-6.0426 81.2097,-15.9991 20.2043,-5.0249 43.4468,-10.6513 51.6501,-12.5032 33.0487,-7.4603 61.7472,-17.7419 120.2815,-43.092 65.7239,-28.464 86.5825,-38.5972 101.7253,-49.4184 6.0178,-4.3004 15.4414,-10.5984 20.9414,-13.9955 5.5,-3.3972 15.4,-10.7661 22,-16.3754 6.6,-5.6094 20.1,-16.337 30,-23.8392 9.9,-7.5022 20.4,-16.5735 23.3333,-20.1584 2.9333,-3.5851 14.2104,-15.8314 25.0603,-27.2139 24.8654,-26.0865 50.1397,-60.2261 58.3205,-78.7771 21.0615,-47.7594 27.7925,-79.1191 27.9117,-130.0387 0.045,-19.3455 -2.1208,-30.5727 -9.0317,-46.813 -12.8387,-30.1706 -44.0755,-66.3732 -79.2929,-91.8985 -14.7879,-10.7182 -50.8868,-30.22 -65.8618,-35.5806 -7.2084,-2.5804 -17.6061,-6.626 -23.1061,-8.9902 -13.6905,-5.8851 -40.7921,-13.3454 -82.0837,-22.5954 -37.8331,-8.4752 -56.2942,-11.3277 -81.9163,-12.657 -19.5932,-1.0166 -27.3352,-3.5655 -28.822,-9.48919 -1.8547,-7.38986 0.9463,-9.56491 34.1553,-26.52271 32.4956,-16.59352 62.2836,-34.56387 77.4535,-46.72584 13.8653,-11.11619 74.062,-66.22528 86.3121,-79.01744 14.733,-15.38489 25.5486,-29.27451 39.134,-50.25672 30.4818,-47.07788 37.2311,-60.34364 45.7372,-89.89641 9.5587,-33.20936 10.2786,-39.96732 9.7007,-91.0755 l -0.5165,-45.69476 -4.2927,-16.66666 c -11.1903,-43.448 -19.1557,-63.99807 -34.9272,-90.10855 -22.4921,-37.23695 -57.3385,-73.19899 -83.7815,-86.46388 -13.0749,-6.55895 -38.1009,-15.46291 -49.4862,-17.60664 -14.8151,-2.78951 -62.1806,-3.9084 -79.6412,-1.88132 -28.2606,3.28089 -61.7552,13.59672 -83.5538,25.73319 -44.4238,24.73332 -88.1546,72.90504 -130.4166,143.66053 -10.6346,17.80456 -49.6436,102.41128 -58.4014,126.66667 -2.7801,7.7 -7.8497,21.2 -11.2658,30 -7.0954,18.27833 -12.6254,37.29509 -26.7535,92 -5.4923,21.26666 -12.1448,45.26666 -14.7833,53.33333 -7.2511,22.16868 -21.3859,71.77592 -27.9351,98.04047 -3.2056,12.85558 -10.0481,37.6284 -15.2055,55.05069 -5.1574,17.42229 -9.3772,33.36104 -9.3772,35.41954 0,5.4189 3.2335,7.6318 19.4858,13.3357 62.8052,22.0422 99.9861,44.9076 127.2665,78.2661 25.5812,31.2806 51.0779,82.6994 63.0841,127.2208 10.642,39.4627 11.3619,72.5854 2.637,121.3334 -6.946,38.8089 -20.4718,69.2522 -46.1802,103.9406 -10.6113,14.318 -35.2026,40.1576 -46.2932,48.6434 -9.0717,6.9409 -74.3638,47.8913 -88,55.1925 -22.3013,11.9405 -47.7757,21.1977 -80.8309,29.3733 -17.5096,4.3307 -37.158,8.6158 -43.6629,9.5226 -12.8643,1.7932 -16.8395,4.1525 -16.8395,9.9942 0,7.6882 7.6382,11.3139 36.6667,17.4051 11.7333,2.4621 32.1333,6.9181 45.3333,9.9021 34.5723,7.8158 85.6068,15.6031 116.6667,17.8022 14.524,1.0282 43.5152,0.778 56.192,-0.4852 z M 1965.3333,554.66667 c -3.9702,-3.97022 -3.5556,-11.10724 0.8466,-14.5699 1.9321,-1.51989 4.5512,-2.76344 5.8201,-2.76344 1.2689,0 3.888,1.24355 5.8201,2.76344 7.0448,5.54142 3.0958,17.23656 -5.8201,17.23656 -2.2223,0 -5.1852,-1.18518 -6.6667,-2.66666 z m -47.0738,-66.81483 c -6.332,-3.68359 -5.3388,-14.25281 1.6097,-17.131 9.8761,-4.09084 18.1401,8.42145 10.3781,15.71341 -3.312,3.1115 -8.1024,3.67796 -11.9878,1.41759 z m -55.5928,-65.18517 c -5.771,-5.77091 -1.5088,-16 6.6666,-16 5.1324,0 9.3334,4.20096 9.3334,9.33333 0,5.13237 -4.201,9.33333 -9.3334,9.33333 -2.2222,0 -5.1852,-1.18518 -6.6666,-2.66666 z M 1148.1721,1527.9389 c 8.3387,-1.5002 21.4612,-3.295 29.1612,-3.9885 17.5454,-1.58 38.902,-5.9609 46.3697,-9.5117 5.5813,-2.6539 8.4652,-6.4175 10.042,-13.1054 0.4323,-1.8333 3.5503,-26.1333 6.9291,-54 7.9741,-65.7674 15.0208,-108.8434 23.1619,-141.5867 3.6119,-14.5273 7.891,-36.0133 9.5091,-47.7466 4.4896,-32.5566 14.8188,-87.4183 25.9481,-137.8184 5.5221,-25.0071 10.0401,-46.2735 10.0401,-47.2588 0,-7.4431 -17.9879,-11.5123 -55.3333,-12.5174 -30.6383,-0.8245 -48.532,1.1978 -78.7003,8.8947 -26.7337,6.8206 -33.54,9.7939 -63.9664,27.9438 -43.8494,26.157 -48.9074,30.7282 -70.3739,63.6006 -16.9027,25.8836 -21.6876,34.4492 -29.4281,52.6797 -13.70345,32.2745 -17.41019,51.2257 -16.52298,84.4758 0.57099,21.3985 1.08903,25.6925 4.7792,39.6139 10.36518,39.1034 30.61758,83.012 55.52678,120.3861 11.3546,17.0367 42.8483,56.2199 52.1763,64.9157 9.2236,8.5986 16.094,9.4468 40.6815,5.0232 z M 1318,1491.7873 c 60.0485,-21.0534 83.96,-32.146 117.2183,-54.377 17.8156,-11.9087 25.1145,-17.8734 42.5437,-34.767 11.5712,-11.2157 24.9464,-25.5486 29.7227,-31.851 10.3249,-13.6242 23.2628,-39.3325 31.936,-63.459 7.303,-20.315 8.196,-28.8678 6.1952,-59.3333 -1.4583,-22.2042 -2.6035,-25.5578 -16.799,-49.1977 -4.6686,-7.7746 -11.671,-19.5356 -15.5612,-26.1356 -10.1118,-17.1563 -32.6384,-39.5549 -53.2557,-52.9535 -23.3709,-15.1881 -46.9253,-28.7843 -58.7257,-33.898 -5.8492,-2.5348 -18.5436,-6.4241 -28.2099,-8.643 -20.0467,-4.6015 -22.5844,-4.2423 -25.8881,3.6648 -1.1103,2.6571 -5.5428,22.3058 -9.85,43.6637 -4.3073,21.358 -10.9337,52.3326 -14.7253,68.8326 -6.2999,27.4154 -11.3421,55.4842 -18.6825,104 -1.4978,9.9 -3.8497,22.5 -5.2265,28 -7.893,31.5323 -17.8137,85.6015 -22.6944,123.6879 -6.0441,47.1647 -6.228,50.4443 -3.0282,53.98 3.0847,3.4085 3.9144,3.2019 45.0306,-11.2139 z m -952.66667,-13.1469 c 33.32112,-3.4549 77.465,-13.4013 115.33334,-25.9865 35.53432,-11.8096 60.95029,-24.3506 89.68093,-44.2514 29.36829,-20.3424 43.28241,-34.5282 67.60869,-68.9289 C 648.77225,1324.1784 652,1318.6273 652,1315.3211 c 0,-3.3988 -2.42987,-7.3247 -11.66667,-18.8497 -16.31701,-20.3591 -35.03896,-44.1579 -39.6671,-50.4236 -6.47774,-8.7697 -45.47284,-50.261 -53.67436,-57.1102 -20.74683,-17.326 -84.30732,-40.487 -132.3252,-48.2184 -18.09608,-2.9137 -72.25162,-4.1405 -95.33334,-2.1597 -52.72729,4.525 -101.86942,24.2877 -126.4727,50.8615 -17.30182,18.6876 -34.37835,48.4664 -41.62008,72.579 -3.07636,10.2432 -3.69754,15.1574 -4.24308,33.5675 -0.71684,24.1906 0.36628,33.0219 6.50189,53.0142 9.46721,30.8479 28.99024,62.0028 49.16731,78.4612 23.03856,18.7927 77.05405,43.3847 111.54125,50.7823 10.73764,2.3032 33.30408,2.6631 51.12541,0.8152 z m -119.76758,-48.3931 c -4.91424,-5.2309 -3.17651,-13.194 3.42714,-15.7046 4.72683,-1.7972 10.34431,0.6382 12.28627,5.3265 4.09084,9.8761 -8.42145,18.1401 -15.71341,10.3781 z m -61.54228,-31.0429 c -3.10723,-3.3709 -7.71291,-10.5951 -10.23486,-16.0535 -4.66306,-10.0925 -15.00296,-46.0109 -20.39633,-70.8521 -2.9112,-13.4086 -2.92767,-13.9781 -0.77108,-26.6667 2.24553,-13.2118 3.86017,-17.1833 5.19032,-12.7663 0.40871,1.3571 2.86963,12.4354 5.46871,24.6183 5.17346,24.2499 14.99822,61.1614 23.36361,87.7766 7.28397,23.1746 7.04764,24.4322 -2.62037,13.9437 z m 34.73997,-49.3843 C 217.24355,1347.888 216,1345.2689 216,1344 c 0,-1.2689 1.24355,-3.888 2.76344,-5.8201 C 224.30485,1331.135 236,1335.0841 236,1344 c 0,8.9159 -11.69515,12.8649 -17.23656,5.8201 z M 200,1269.3333 c -6.01065,-6.0106 -1.49263,-16 7.23656,-16 4.88964,0 10.09677,4.8134 10.09677,9.3334 0,1.2688 -1.24354,3.8879 -2.76344,5.8202 -3.46265,4.402 -10.59968,4.8166 -14.56989,0.8464 z m 906,842.5475 c -8.0667,-0.6153 -22.7646,-1.9796 -32.6621,-3.0317 l -17.9953,-1.9131 -5.0494,-5.6899 c -2.7772,-3.1294 -4.5496,-6.1897 -3.9388,-6.8005 0.6109,-0.6108 12.781,0.112 27.0448,1.6052 14.2638,1.4937 35.6999,3.1892 47.6358,3.7676 11.9359,0.5784 22.246,1.6059 22.9113,2.2833 0.6652,0.6774 0.7764,3.3316 0.2469,5.8983 l -0.9626,4.6667 -11.282,0.1664 c -6.2051,0.092 -17.8819,-0.337 -25.9486,-0.9523 z m 93.4668,0.4749 c -1.5313,-1.5313 -0.8147,-11.102 0.8665,-11.5736 0.9167,-0.257 18.4667,-1.7844 39,-3.3941 52.1443,-4.0879 84.9785,-8.5449 128.236,-17.4072 199.1548,-40.8015 374.3278,-135.2852 521.8195,-281.4561 119.1035,-118.0367 213.3044,-279.6235 259.3659,-444.9006 16.1261,-57.8633 25.0322,-105.7446 32.1709,-172.9574 4.7053,-44.3019 4.8179,-46.6228 4.9447,-102 0.1354,-59.1812 -0.8628,-76.9696 -7.37,-131.33337 -10.4472,-87.27909 -35.5778,-180.77412 -71.8295,-267.23133 -9.2881,-22.15161 -9.3375,-22.33435 -9.3375,-34.63001 0,-9.13515 0.4246,-12.21935 1.627,-11.81856 3.8745,1.29152 31.3465,67.88924 46.3304,112.31428 27.3129,80.9794 41.6805,149.9772 50.2605,241.36562 3.2392,34.50187 3.6268,44.26767 3.5988,90.66667 -0.031,50.5832 -0.1669,53.2896 -5.0064,99.3333 -7.1929,68.4355 -15.386,114.4648 -30.3779,170.6667 -46.526,174.4171 -147.8704,346.9688 -276.4673,470.72 -144.3897,138.9492 -313.638,229.9407 -504.6317,271.3008 -43.5227,9.4249 -81.8068,14.9935 -132,19.2 -43.2609,3.6255 -50.2796,4.0552 -51.1999,3.1349 z m -267.93153,-25.0409 c -153.49604,-34.9844 -298.68894,-105.7168 -422.8686,-206.0051 -53.13126,-42.9092 -108.92812,-98.8124 -151.68734,-151.9764 -27.5604,-34.2668 -59.7872,-80.3218 -81.42242,-116.3602 -17.87527,-29.7752 -46.70731,-83.7682 -49.46928,-92.6398 -1.18434,-3.8041 0.92265,-3.901 9.05198,-0.4164 5.86012,2.512 6.32419,3.1687 16.72538,23.6667 64.46529,127.0444 159.04345,243.2619 269.84782,331.5887 37.8668,30.185 83.55799,61.6484 124.28719,85.585 22.35165,13.1362 78.87217,42.05 101.33333,51.8384 68.24026,29.7387 145.00044,54.1832 211.66667,67.406 4.21667,0.8364 7.66667,2.0278 7.66667,2.6475 0,1.9545 -10.27112,9.3547 -12.85854,9.2644 -1.36114,-0.048 -11.38393,-2.1169 -22.27286,-4.5988 z m 303.97783,-32.7449 c -7.0447,-5.5414 -3.0957,-17.2366 5.8202,-17.2366 8.9159,0 12.865,11.6952 5.8202,17.2366 -1.9322,1.5198 -4.5513,2.7634 -5.8202,2.7634 -1.2688,0 -3.8879,-1.2436 -5.8202,-2.7634 z m -166.587,-0.052 c -6.332,-3.6836 -5.3388,-14.2528 1.6098,-17.1311 9.8761,-4.0908 18.1401,8.4215 10.3782,15.7135 -3.3121,3.1114 -8.1025,3.678 -11.988,1.4176 z M 1317.3333,2044 c -5.7709,-5.7709 -1.5088,-16 6.6667,-16 5.1324,0 9.3333,4.2009 9.3333,9.3333 0,5.1324 -4.2009,9.3334 -9.3333,9.3334 -2.2222,0 -5.1852,-1.1852 -6.6667,-2.6667 z m -333.28135,-1.5848 c -5.8024,-6.2281 -1.4006,-15.7485 7.28138,-15.7485 2.97682,0 5.50775,1.0142 7.28139,2.9181 5.80238,6.2281 1.40058,15.7485 -7.28139,15.7485 -2.97681,0 -5.50774,-1.0142 -7.28138,-2.9181 z m 414.84715,-16.1679 c -6.0958,-6.4885 -1.8542,-16.114 7.1009,-16.114 9.0577,0 13.3909,10.2162 6.914,16.301 -4.0992,3.8509 -10.2992,3.7682 -14.0149,-0.187 z m -495.98102,-0.966 c -6.20852,-5.784 -1.94045,-17.2813 6.41525,-17.2813 5.10862,0 9.33334,4.5265 9.33334,10 0,5.4735 -4.22472,10 -9.33334,10 -1.92344,0 -4.8103,-1.2233 -6.41525,-2.7187 z m 578.83582,-21.2618 c -6.1754,-2.5491 -7.6255,-11.1298 -2.6679,-15.7871 8.8669,-8.3301 22.4077,3.6464 14.5807,12.8964 -2.7939,3.3017 -7.9096,4.5431 -11.9128,2.8907 z m -658.85482,-4.4388 c -8.5138,-9.0626 3.56505,-22.2371 13.21988,-14.4191 2.22992,1.8056 3.08104,3.8789 3.08104,7.5051 0,9.0577 -10.21619,13.3909 -16.30092,6.914 z m 733.19772,-29.7606 c -1.5199,-1.9321 -2.7635,-4.5512 -2.7635,-5.8201 0,-1.2689 1.2436,-3.888 2.7635,-5.8201 5.5413,-7.0448 17.2365,-3.0958 17.2365,5.8201 0,8.9159 -11.6952,12.8649 -17.2365,5.8201 z M 745.33333,1968 c -6.01065,-6.0107 -1.49262,-16 7.23656,-16 4.88964,0 10.09678,4.8135 10.09678,9.3333 0,1.269 -1.24355,3.888 -2.76344,5.8202 -3.46266,4.4021 -10.59968,4.8168 -14.5699,0.8465 z m 888.42057,-33.3139 c -6.1754,-2.549 -7.6255,-11.1297 -2.6679,-15.787 8.8669,-8.3302 22.4077,3.6464 14.5807,12.8964 -2.7939,3.3017 -7.9096,4.543 -11.9128,2.8906 z m -963.03529,-5.6042 c -5.8024,-6.2282 -1.4006,-15.7486 7.28139,-15.7486 2.97681,0 5.50775,1.0143 7.28139,2.9182 5.8024,6.2281 1.4006,15.7485 -7.28139,15.7485 -2.97681,0 -5.50775,-1.0143 -7.28139,-2.9181 z m 1030.71149,-41.9284 c -1.5198,-1.9322 -2.7634,-4.5512 -2.7634,-5.8202 0,-1.2689 1.2436,-3.888 2.7634,-5.8201 5.5414,-7.0448 17.2366,-3.0957 17.2366,5.8201 0,8.9159 -11.6952,12.865 -17.2366,5.8202 z M 600.23241,1884.914 c -6.09573,-6.4885 -1.85412,-16.114 7.10092,-16.114 9.05775,0 13.39096,10.2161 6.91407,16.3009 -4.0992,3.851 -10.29928,3.7683 -14.01499,-0.1869 z m 1170.86249,-45.1364 c -1.5978,-0.7885 -3.5749,-3.0508 -4.3936,-5.0272 -4.0733,-9.834 8.465,-18.0675 15.733,-10.3311 7.3586,7.8328 -1.7074,20.112 -11.3394,15.3583 z m -1237.52915,-5.5303 c -6.09574,-6.4885 -1.85412,-16.114 7.10092,-16.114 9.05774,0 13.39096,10.2162 6.91406,16.301 -4.0992,3.8509 -10.29928,3.7682 -14.01498,-0.187 z m 1297.33335,-52 c -6.061,-6.4516 -1.5531,-16.914 7.2877,-16.914 5.1529,0 9.8132,4.8378 9.8132,10.1868 0,8.629 -11.1819,13.0278 -17.1009,6.7272 z M 472,1778.6667 c -3.97021,-3.9703 -3.55557,-11.1072 0.84648,-14.5699 1.93223,-1.5199 4.55131,-2.7635 5.82019,-2.7635 1.26888,0 3.88796,1.2436 5.82018,2.7635 7.04478,5.5413 3.09572,17.2365 -5.82018,17.2365 -2.22223,0 -5.18519,-1.1852 -6.66667,-2.6666 z m 1416.0968,-58.1799 c -1.5199,-1.9321 -2.7635,-4.5512 -2.7635,-5.8201 0,-1.269 1.2436,-3.888 2.7635,-5.8202 5.5413,-7.0448 17.2365,-3.0957 17.2365,5.8202 0,8.9158 -11.6952,12.8649 -17.2365,5.8201 z M 414.89908,1716.914 c -4.91424,-5.2309 -3.17651,-13.194 3.42715,-15.7047 4.72682,-1.7972 10.3443,0.6383 12.28626,5.3266 4.09084,9.8761 -8.42145,18.1401 -15.71341,10.3781 z m 1525.33332,-61.3333 c -6.0957,-6.4886 -1.8541,-16.114 7.1009,-16.114 9.0578,0 13.391,10.2161 6.914,16.3009 -4.0992,3.8509 -10.2992,3.7683 -14.0149,-0.1869 z m -1574.47083,-2.4698 c -1.5978,-0.7885 -3.57489,-3.0508 -4.39354,-5.0272 -4.0734,-9.834 8.46496,-18.0674 15.73289,-10.331 7.35864,7.8328 -1.70728,20.112 -11.33935,15.3582 z m 1621.75163,-66.541 c -7.0448,-5.5414 -3.0957,-17.2366 5.8201,-17.2366 8.9159,0 12.865,11.6952 5.8202,17.2366 -1.9322,1.5198 -4.5512,2.7634 -5.8202,2.7634 -1.2689,0 -3.888,-1.2436 -5.8201,-2.7634 z m -1667.92045,-4.0514 c -6.33194,-3.6836 -5.33875,-14.2528 1.6098,-17.131 9.87616,-4.0908 18.14012,8.4214 10.37818,15.7134 -3.31204,3.1115 -8.10246,3.678 -11.98798,1.4176 z M 130.2106,1161 c -6.01056,-60.7627 -4.3308,-139.8079 4.52639,-213 C 159.02588,747.28676 242.30239,558.76016 376,401.81357 c 21.19372,-24.87913 69.43492,-74.32662 94,-96.35048 94.51793,-84.74022 194.12868,-146.07018 315.31021,-194.13531 87.9252,-34.874423 178.98119,-56.304765 281.50549,-66.253277 41.8926,-4.065078 47.5839,-4.314948 96.5176,-4.237471 54.3788,0.08609 86.7305,2.11322 136.6667,8.563384 155.0297,20.024905 307.7383,77.419214 438,164.618954 35.9015,24.03316 99.3635,73.15755 109.3333,84.63236 l 2.6667,3.06919 -9.1943,-0.91749 c -11.2556,-1.1232 -11.431,-1.2158 -27.0761,-14.29484 C 1673.5948,169.35856 1492.276,89.304831 1308.5097,63.449827 1255.1988,55.949251 1225.3821,54.018545 1163.3333,54.049293 1110.895,54.075279 1102.7556,54.392437 1068,57.764049 997.3962,64.61326 941.17728,75.290849 874.41555,94.531311 778.20897,122.25765 676.71516,169.59933 592.795,225.89289 467.7052,309.80303 361.2442,422.41037 282.91881,553.65928 213.002,670.81804 167.06061,802.845 148.71592,939.33333 c -6.99319,52.03084 -9.22248,85.65887 -9.19257,138.66667 0.0161,28.5361 0.68165,55.1262 1.57874,63.0747 l 1.55092,13.7414 -4.64328,7.2586 c -2.5538,3.9923 -5.16787,7.2586 -5.80904,7.2586 -0.64117,0 -1.53671,-3.75 -1.99009,-8.3333 z m 1994.0218,-52.0859 c -4.9143,-5.231 -3.1765,-13.1941 3.4272,-15.7048 7.6372,-2.9037 15.3681,4.8272 12.4644,12.4645 -2.5485,6.7033 -11.0163,8.4298 -15.8916,3.2403 z m -1938.47857,-3.5614 c -6.1753,-2.5489 -7.62539,-11.1296 -2.6679,-15.787 8.86707,-8.3301 22.40782,3.6464 14.58074,12.8964 -2.79383,3.3017 -7.90956,4.5431 -11.91284,2.8906 z m 1935.67627,-80.8658 c -1.5198,-1.9323 -2.7634,-4.5514 -2.7634,-5.8202 0,-1.2689 1.2436,-3.888 2.7634,-5.8202 5.5414,-7.0448 17.2366,-3.0957 17.2366,5.8202 0,8.9159 -11.6952,12.8649 -17.2366,5.8202 z m -1935.86435,-4.9062 c -6.09574,-6.4886 -1.85412,-16.114 7.10092,-16.114 9.05774,0 13.39096,10.2162 6.91406,16.3009 -4.0992,3.851 -10.29928,3.7683 -14.01498,-0.1869 z M 2113.5657,942.2474 c -8.5137,-9.06253 3.5651,-22.23719 13.2199,-14.41919 2.23,1.80568 3.0811,3.87894 3.0811,7.50512 0,9.05775 -10.2162,13.39096 -16.301,6.91407 z M 197.75383,938.65736 c -6.16944,-2.48572 -7.62764,-11.09883 -2.6679,-15.75828 5.23098,-4.91424 13.19407,-3.17651 15.70478,3.42715 1.73772,4.57057 -0.53223,10.15753 -4.94356,12.16748 -3.80874,1.73537 -4.17406,1.74276 -8.09332,0.16365 z M 2097.3333,860 c -6.0106,-6.01065 -1.4926,-16 7.2366,-16 4.8896,0 10.0968,4.81341 10.0968,9.33333 0,1.26888 -1.2436,3.88796 -2.7635,5.82019 -3.4627,4.40205 -10.5996,4.81669 -14.5699,0.84648 z M 210.76344,853.82019 C 209.24355,851.88796 208,849.26888 208,848 c 0,-1.26888 1.24355,-3.88796 2.76344,-5.82019 C 216.30485,835.13504 228,839.08409 228,848 c 0,8.91591 -11.69515,12.86496 -17.23656,5.82019 z M 2074.6667,780 c -3.9703,-3.97021 -3.5556,-11.10724 0.8465,-14.56989 1.9321,-1.5199 4.5512,-2.76344 5.8201,-2.76344 1.269,0 3.888,1.24354 5.8202,2.76344 7.0448,5.54141 3.0957,17.23656 -5.8202,17.23656 -2.2222,0 -5.1852,-1.18519 -6.6666,-2.66667 z M 234.91808,774.61472 c -6.20852,-5.78411 -1.94045,-17.28139 6.41525,-17.28139 5.10862,0 9.33334,4.5265 9.33334,10 0,5.47351 -4.22472,10 -9.33334,10 -1.92344,0 -4.8103,-1.22337 -6.41525,-2.71861 z m 29.17869,-79.4612 c -1.51989,-1.93223 -2.76344,-4.55131 -2.76344,-5.82019 0,-1.26888 1.24355,-3.88796 2.76344,-5.82018 5.54142,-7.04478 17.23656,-3.09572 17.23656,5.82018 0,8.91591 -11.69514,12.86496 -17.23656,5.82019 z m 37.28851,-74.0716 c -5.8024,-6.22813 -1.4006,-15.74859 7.28139,-15.74859 5.4735,0 10,4.22472 10,9.33334 0,8.3557 -11.49728,12.62377 -17.28139,6.41525 z m 43.94805,-71.74859 c -1.48148,-1.48148 -2.66666,-4.44444 -2.66666,-6.66666 0,-2.22223 1.18518,-5.18519 2.66666,-6.66667 1.48148,-1.48148 4.44444,-2.66667 6.66667,-2.66667 2.22223,0 5.18519,1.18519 6.66667,2.66667 1.48148,1.48148 2.66666,4.44444 2.66666,6.66667 0,2.22222 -1.18518,5.18518 -2.66666,6.66666 C 357.18519,550.81481 354.22223,552 352,552 c -2.22223,0 -5.18519,-1.18519 -6.66667,-2.66667 z m 49.58475,-66.71861 c -3.92223,-3.65411 -3.92223,-10.90867 0,-14.56277 6.22813,-5.8024 15.74859,-1.4006 15.74859,7.28138 0,5.47351 -4.22472,10 -9.33334,10 -1.92344,0 -4.8103,-1.22337 -6.41525,-2.71861 z m 54.41525,-63.94805 c -1.48148,-1.48148 -2.66666,-4.44444 -2.66666,-6.66667 0,-2.22223 1.18518,-5.18519 2.66666,-6.66667 1.48148,-1.48148 4.44444,-2.66666 6.66667,-2.66666 2.22223,0 5.18519,1.18518 6.66667,2.66666 1.48148,1.48148 2.66666,4.44444 2.66666,6.66667 0,2.22223 -1.18518,5.18519 -2.66666,6.66667 -1.48148,1.48148 -4.44444,2.66666 -6.66667,2.66666 -2.22223,0 -5.18519,-1.18518 -6.66667,-2.66666 z m 60.25142,-57.38528 c -3.92223,-3.65411 -3.92223,-10.90867 0,-14.56278 6.22813,-5.8024 15.74858,-1.4006 15.74858,7.28139 0,5.47351 -4.22472,10 -9.33333,10 -1.92344,0 -4.81031,-1.22337 -6.41525,-2.71861 z m 63.981,-53.70066 c -6.09574,-6.48861 -1.85412,-16.11406 7.10092,-16.11406 9.05774,0 13.39096,10.21618 6.91406,16.30092 -4.0992,3.851 -10.29928,3.76833 -14.01498,-0.18686 z M 1668.0968,263.15352 c -1.5199,-1.93223 -2.7635,-4.55131 -2.7635,-5.82019 0,-1.26888 1.2436,-3.88796 2.7635,-5.82018 5.5413,-7.04478 17.2365,-3.09572 17.2365,5.82018 0,8.91591 -11.6952,12.86496 -17.2365,5.82019 z M 642.89908,260.91407 C 636.83808,254.46243 641.34603,244 650.18685,244 655.33972,244 660,248.83776 660,254.18685 c 0,8.62894 -11.18191,13.02771 -17.10092,6.72722 z M 1596,222.66667 c -6.0107,-6.01066 -1.4927,-16 7.2365,-16 4.8896,0 10.0968,4.81341 10.0968,9.33333 0,1.26888 -1.2436,3.88796 -2.7634,5.82019 -3.4627,4.40205 -10.5996,4.81669 -14.5699,0.84648 z M 716,220 c -6.01065,-6.01065 -1.49263,-16 7.23656,-16 4.88964,0 10.09677,4.81341 10.09677,9.33333 0,1.26888 -1.24354,3.88796 -2.76344,5.82019 C 727.10724,223.55557 719.97021,223.97021 716,220 Z m 804,-32 c -5.7709,-5.77091 -1.5088,-16 6.6667,-16 5.1324,0 9.3333,4.20096 9.3333,9.33333 0,5.13238 -4.2009,9.33334 -9.3333,9.33334 -2.2223,0 -5.1852,-1.18519 -6.6667,-2.66667 z m -727.76759,-1.7526 c -6.061,-6.45164 -1.55305,-16.91407 7.28778,-16.91407 5.15286,0 9.81314,4.83776 9.81314,10.18686 0,8.62893 -11.1819,13.0277 -17.10092,6.72721 z M 1441.3333,160 c -5.7709,-5.77091 -1.5088,-16 6.6667,-16 5.1324,0 9.3333,4.20096 9.3333,9.33333 0,5.13238 -4.2009,9.33334 -9.3333,9.33334 -2.2223,0 -5.1852,-1.18519 -6.6667,-2.66667 z m -569.45226,-1.16155 c -2.22992,-1.80568 -3.08104,-3.87893 -3.08104,-7.50512 0,-9.05774 10.21619,-13.39096 16.30092,-6.91406 8.5138,9.06253 -3.56505,22.23718 -13.21988,14.41918 z m 488.17096,-20.4232 c -5.8024,-6.22813 -1.4007,-15.74858 7.2813,-15.74858 2.9768,0 5.5078,1.01429 7.2814,2.91808 5.8024,6.22813 1.4006,15.74858 -7.2814,15.74858 -2.9768,0 -5.5077,-1.01429 -7.2813,-2.91808 z m -408.00005,-1.33333 c -5.8024,-6.22814 -1.4006,-15.74859 7.28138,-15.74859 2.97682,0 5.50775,1.0143 7.28139,2.91808 5.8024,6.22814 1.4006,15.74859 -7.28139,15.74859 -2.97681,0 -5.50774,-1.01429 -7.28138,-2.91808 z M 1034.6667,124 c -6.0107,-6.01066 -1.4927,-16 7.2365,-16 4.8897,0 10.0968,4.81341 10.0968,9.33333 0,1.26888 -1.2435,3.88796 -2.7634,5.82019 -3.4627,4.40205 -10.5997,4.81669 -14.5699,0.84648 z m 242.7634,-0.84648 c -1.5199,-1.93223 -2.7634,-4.55131 -2.7634,-5.82019 0,-1.26887 1.2435,-3.88796 2.7634,-5.82018 5.5414,-7.04477 17.2366,-3.09573 17.2366,5.82018 0,8.91591 -11.6952,12.86496 -17.2366,5.82019 z m -158.512,-5.87213 C 1112.7096,111.49728 1116.9776,100 1125.3333,100 c 5.1086,0 9.3334,4.52649 9.3334,10 0,5.47351 -4.2248,10 -9.3334,10 -1.9234,0 -4.8103,-1.22337 -6.4152,-2.71861 z m 75.7486,0.0519 c -5.7709,-5.77091 -1.5088,-16 6.6666,-16 5.1324,0 9.3334,4.20096 9.3334,9.33334 0,5.13238 -4.201,9.33333 -9.3334,9.33333 -2.2222,0 -5.1852,-1.18519 -6.6666,-2.66667 z"
       id="path3752"
       inkscape:connector-curvature="0" />
  </g>
</svg>
